<svg width="3410" height="3965" fill="none" xmlns="http://www.w3.org/2000/svg"><path d="M198.021 3939.91l1.178 11.55 6.187-9.83L668.1 3206.15l367.32 735.14 3.58 7.15 3.58-7.15 367.47-734.46 378.9 734.5 3.73 7.24 3.44-7.38 343.36-734.76 450.61 735.16 4.01 6.55 3.07-7.04 319.34-734.25 426.53 734.66 6.2 10.67 1.24-12.28-3.98-.4c3.98.4 3.98.4 3.98.39l.01-.05.01-.17.07-.67c.06-.6.15-1.49.26-2.67.24-2.35.58-5.86 1.02-10.47.88-9.22 2.16-22.84 3.74-40.44 3.16-35.22 7.53-86.38 12.39-150.2 9.72-127.65 21.39-305.94 29.16-508.51 15.56-405.07 15.57-907.52-46.69-1296.34-9.12-56.94-17.51-112.32-25.7-166.33-64.32-424.42-115.92-764.844-405.67-1115.09-154.08-186.251-314.8-315.159-497.59-397.478-182.77-82.314-387.35-117.931-628.99-117.972-241.72-.041-447.29 34.803-630.61 116.75-183.331 81.957-344.143 210.915-496.496 398.73-321.531 396.37-386.397 778.7-467.343 1281.38-62.773 389.83-62.757 892.29-47.078 1297.11 7.841 202.45 19.602 380.54 29.402 508.03 4.901 63.75 9.312 114.84 12.497 150a6873.28 6873.28 0 003.769 40.38c.444 4.61.789 8.11 1.023 10.46l.266 2.67.068.67.017.17.004.04c.001.01.002.02 3.981-.39l-3.979.41z" fill="none" stroke="#000" stroke-width="20"/><ellipse cx="2327" cy="1406" rx="494" ry="501" fill="none" stroke="#000" stroke-width="20"/><ellipse cx="1220" cy="1406" rx="494" ry="501" fill="none" stroke="#000" stroke-width="20"/><ellipse cx="1219.5" cy="1406.5" rx="246.5" ry="227.5" fill="none" stroke="#000" stroke-width="20"/><ellipse cx="2327" cy="1406" rx="247" ry="227" fill="none" stroke="#000" stroke-width="20"/><path d="M1234 721c223.7 117.709 532.5 368 532.5 368s321.83-249.687 552.5-368c385.43-197.689 1065-310 1065-310V4.5s-696.23 51.475-1065 271c-248.7 148.051-552.5 494-552.5 494s-291.46-344.464-532.5-494C816.032 16.204 4 4.5 4 4.5V411s791.618 79.331 1230 310zM1762 1852c-177.4 3.31-396.06 134.49-339 302.5 98.5 290 339 604.5 339 604.5s240.5-364 352-604.5c76.24-164.44-170.78-305.88-352-302.5z" fill="none" stroke="#000" stroke-width="20"/></svg>