<svg width="1429" height="2205" viewBox="0 0 1429 2205" fill="none" xmlns="http://www.w3.org/2000/svg">
<path d="M541 1851.46L666.616 2128.64C666.616 2128.64 597.22 2136.03 575.259 2140.97C558.465 2144.74 562.795 2165.27 570.574 2178.45C575.761 2187.24 592.535 2195.46 592.535 2195.46L587.264 2164.15L640.849 2178.45H779.056C779.056 2178.45 847.016 2184.33 857.822 2178.45C868.628 2172.56 880.076 2157.98 880.076 2157.98L923.412 2185.85C923.412 2185.85 920.943 2175.13 915.934 2164.15L931.025 2178.45C931.025 2178.45 937.737 2143.43 915.934 2136.03C894.131 2128.64 864.264 2128.64 864.264 2128.64H742.454C686.235 2003.61 627.672 1851.46 627.672 1851.46H541Z" fill="#9E7A60"/>
<path d="M541 1851.46L666.616 2128.64C666.616 2128.64 597.22 2136.03 575.259 2140.97C558.465 2144.74 562.795 2165.27 570.574 2178.45C575.761 2187.24 592.535 2195.46 592.535 2195.46L587.264 2164.15L640.849 2178.45H779.056C779.056 2178.45 847.016 2184.33 857.822 2178.45C868.628 2172.56 880.076 2157.98 880.076 2157.98L923.412 2185.85C923.412 2185.85 920.943 2175.13 915.934 2164.15L931.025 2178.45C931.025 2178.45 937.737 2143.43 915.934 2136.03C894.131 2128.64 864.264 2128.64 864.264 2128.64H742.454C686.235 2003.61 627.672 1851.46 627.672 1851.46H541Z" fill="url(#paint0_linear)"/>
<path d="M541 1851.46L666.616 2128.64C666.616 2128.64 597.22 2136.03 575.259 2140.97C558.465 2144.74 562.795 2165.27 570.574 2178.45C575.761 2187.24 592.535 2195.46 592.535 2195.46L587.264 2164.15L640.849 2178.45H779.056C779.056 2178.45 847.016 2184.33 857.822 2178.45C868.628 2172.56 880.076 2157.98 880.076 2157.98L923.412 2185.85C923.412 2185.85 920.943 2175.13 915.934 2164.15L931.025 2178.45C931.025 2178.45 937.737 2143.43 915.934 2136.03C894.131 2128.64 864.264 2128.64 864.264 2128.64H742.454C686.235 2003.61 627.672 1851.46 627.672 1851.46H541Z" fill="url(#paint1_linear)"/>
<path d="M541 1851.46L666.616 2128.64C666.616 2128.64 597.22 2136.03 575.259 2140.97C558.465 2144.74 562.795 2165.27 570.574 2178.45C575.761 2187.24 592.535 2195.46 592.535 2195.46L587.264 2164.15L640.849 2178.45H779.056C779.056 2178.45 847.016 2184.33 857.822 2178.45C868.628 2172.56 880.076 2157.98 880.076 2157.98L923.412 2185.85C923.412 2185.85 920.943 2175.13 915.934 2164.15L931.025 2178.45C931.025 2178.45 937.737 2143.43 915.934 2136.03C894.131 2128.64 864.264 2128.64 864.264 2128.64H742.454C686.235 2003.61 627.672 1851.46 627.672 1851.46H541Z" fill="url(#paint2_linear)"/>
<path d="M575.259 2140.97C597.22 2136.03 666.616 2128.64 666.616 2128.64L541 1851.46H627.672C627.672 1851.46 686.235 2003.61 742.454 2128.64M575.259 2140.97C558.465 2144.74 562.795 2165.27 570.574 2178.45C575.761 2187.24 592.535 2195.46 592.535 2195.46L587.264 2164.15M575.259 2140.97L587.264 2164.15M587.264 2164.15L640.849 2178.45H779.056C779.056 2178.45 847.016 2184.33 857.822 2178.45C868.628 2172.56 880.076 2157.98 880.076 2157.98M880.076 2157.98L923.412 2185.85C923.412 2185.85 920.943 2175.13 915.934 2164.15M880.076 2157.98L894.131 2140.97M894.131 2140.97C851.38 2133.81 745.338 2135.05 742.454 2128.64M894.131 2140.97C903.83 2142.59 911.076 2153.49 915.934 2164.15M894.131 2140.97L915.934 2136.03M742.454 2128.64H864.264C864.264 2128.64 894.131 2128.64 915.934 2136.03M915.934 2136.03C937.737 2143.43 931.025 2178.45 931.025 2178.45L915.934 2164.15" stroke="black" stroke-width="10"/>
<path d="M1305.21 1164.59L1226.27 984.463H621.024L563.423 1080.5L445.298 1193.34L328.05 1262.71L247.059 1382.95L195.306 1468.13L171.623 1568.86L139.167 1592.56L68.4092 1677.99L38.0007 1714.04L47.0647 1765.64L78.0579 1797.49L113.145 1850.82L123.671 1926.61L216.943 1940.69L290.917 1935.01L450.269 1899.21L479.508 1912.29L503.483 1926.61L515.471 1899.21L568.686 1946.86L546.172 1877.48L594.124 1912.29V1886.12L662.836 1926.61L714.296 1958.46V1899.21L755.231 1958.46L777.452 1886.12L787.686 1926.61L906.104 1818.23V1855.75L1014 1714.04L1113.12 1559.23L1149.08 1481.22L1169.84 1534V1421L1204.05 1392.83L1216 1344L1226.27 1288.64L1265.74 1332.09L1240.01 1261.23L1287.96 1288.64L1240.01 1219.26L1305.21 1248.15L1240.01 1174.57L1305.21 1204.94L1250.25 1129.64L1305.21 1164.59Z" fill="#BC9D80"/>
<path d="M1305.21 1164.59L1226.27 984.463H621.024L563.423 1080.5L445.298 1193.34L328.05 1262.71L247.059 1382.95L195.306 1468.13L171.623 1568.86L139.167 1592.56L68.4092 1677.99L38.0007 1714.04L47.0647 1765.64L78.0579 1797.49L113.145 1850.82L123.671 1926.61L216.943 1940.69L290.917 1935.01L450.269 1899.21L479.508 1912.29L503.483 1926.61L515.471 1899.21L568.686 1946.86L546.172 1877.48L594.124 1912.29V1886.12L662.836 1926.61L714.296 1958.46V1899.21L755.231 1958.46L777.452 1886.12L787.686 1926.61L906.104 1818.23V1855.75L1014 1714.04L1113.12 1559.23L1149.08 1481.22L1169.84 1534V1421L1204.05 1392.83L1216 1344L1226.27 1288.64L1265.74 1332.09L1240.01 1261.23L1287.96 1288.64L1240.01 1219.26L1305.21 1248.15L1240.01 1174.57L1305.21 1204.94L1250.25 1129.64L1305.21 1164.59Z" fill="url(#paint3_linear)"/>
<path d="M1305.21 1164.59L1226.27 984.463H621.024L563.423 1080.5L445.298 1193.34L328.05 1262.71L247.059 1382.95L195.306 1468.13L171.623 1568.86L139.167 1592.56L68.4092 1677.99L38.0007 1714.04L47.0647 1765.64L78.0579 1797.49L113.145 1850.82L123.671 1926.61L216.943 1940.69L290.917 1935.01L450.269 1899.21L479.508 1912.29L503.483 1926.61L515.471 1899.21L568.686 1946.86L546.172 1877.48L594.124 1912.29V1886.12L662.836 1926.61L714.296 1958.46V1899.21L755.231 1958.46L777.452 1886.12L787.686 1926.61L906.104 1818.23V1855.75L1014 1714.04L1113.12 1559.23L1149.08 1481.22L1169.84 1534V1421L1204.05 1392.83L1216 1344L1226.27 1288.64L1265.74 1332.09L1240.01 1261.23L1287.96 1288.64L1240.01 1219.26L1305.21 1248.15L1240.01 1174.57L1305.21 1204.94L1250.25 1129.64L1305.21 1164.59Z" stroke="black" stroke-width="10"/>
<path d="M1144.38 1274.17C1181.54 1169.46 1050.2 1036.41 1050.2 1036.41L462 865.963C462 865.963 417.901 1136.41 306.473 1241.83C220.038 1323.61 164.629 1521.07 164.629 1521.07L92.7395 1588.57C92.7395 1588.57 68.4835 1626.16 55.5968 1651.28C48.4679 1665.18 32.0724 1738.55 31 1753.67C29.735 1771.5 12.5 1813.45 12.5 1832.17C12.5 1859.67 -4.12244 1915.37 12.5 1927.67C12.5 1927.67 38.634 1978.18 38.634 2008.79C38.634 2039.41 102.391 2020.15 102.391 2020.15C102.391 2020.15 277.645 1950.82 326.068 1944.51C416.346 1932.73 472.712 1873.15 550.094 1832.17C666.453 1770.54 755.987 1716.62 793.714 1686C831.442 1655.39 887.01 1607.49 917.426 1573.42C1005.34 1474.93 1098.46 1403.55 1144.38 1274.17Z" fill="#392C24"/>
<path d="M1144.38 1274.17C1181.54 1169.46 1050.2 1036.41 1050.2 1036.41L462 865.963C462 865.963 417.901 1136.41 306.473 1241.83C220.038 1323.61 164.629 1521.07 164.629 1521.07L92.7395 1588.57C92.7395 1588.57 68.4835 1626.16 55.5968 1651.28C48.4679 1665.18 32.0724 1738.55 31 1753.67C29.735 1771.5 12.5 1813.45 12.5 1832.17C12.5 1859.67 -4.12244 1915.37 12.5 1927.67C12.5 1927.67 38.634 1978.18 38.634 2008.79C38.634 2039.41 102.391 2020.15 102.391 2020.15C102.391 2020.15 277.645 1950.82 326.068 1944.51C416.346 1932.73 472.712 1873.15 550.094 1832.17C666.453 1770.54 755.987 1716.62 793.714 1686C831.442 1655.39 887.01 1607.49 917.426 1573.42C1005.34 1474.93 1098.46 1403.55 1144.38 1274.17Z" fill="url(#paint4_linear)"/>
<path d="M1144.38 1274.17C1181.54 1169.46 1050.2 1036.41 1050.2 1036.41L462 865.963C462 865.963 417.901 1136.41 306.473 1241.83C220.038 1323.61 164.629 1521.07 164.629 1521.07L92.7395 1588.57C92.7395 1588.57 68.4835 1626.16 55.5968 1651.28C48.4679 1665.18 32.0724 1738.55 31 1753.67C29.735 1771.5 12.5 1813.45 12.5 1832.17C12.5 1859.67 -4.12244 1915.37 12.5 1927.67C12.5 1927.67 38.634 1978.18 38.634 2008.79C38.634 2039.41 102.391 2020.15 102.391 2020.15C102.391 2020.15 277.645 1950.82 326.068 1944.51C416.346 1932.73 472.712 1873.15 550.094 1832.17C666.453 1770.54 755.987 1716.62 793.714 1686C831.442 1655.39 887.01 1607.49 917.426 1573.42C1005.34 1474.93 1098.46 1403.55 1144.38 1274.17Z" fill="url(#paint5_linear)"/>
<path d="M12.5 1927.67C5.48096 1927.67 31.4216 1941.66 12.5 1927.67ZM12.5 1927.67C-4.12244 1915.37 12.5 1859.67 12.5 1832.17C12.5 1813.45 29.735 1771.5 31 1753.67C32.0724 1738.55 48.4679 1665.18 55.5968 1651.28C68.4835 1626.16 92.7395 1588.57 92.7395 1588.57L164.629 1521.07C164.629 1521.07 220.038 1323.61 306.473 1241.83C417.901 1136.41 462 865.963 462 865.963L1050.2 1036.41C1050.2 1036.41 1181.54 1169.46 1144.38 1274.17C1098.46 1403.55 1005.34 1474.93 917.426 1573.42C887.01 1607.49 831.442 1655.39 793.714 1686C755.987 1716.62 666.453 1770.54 550.094 1832.17C472.712 1873.15 416.346 1932.73 326.068 1944.51C277.645 1950.82 102.391 2020.15 102.391 2020.15C102.391 2020.15 38.634 2039.41 38.634 2008.79C38.634 1978.18 12.5 1927.67 12.5 1927.67Z" stroke="black" stroke-width="10"/>
<path d="M1199.5 419.463C1254.47 459.618 1278.18 502.339 1310 562.521C1337.07 613.714 1349.54 678.211 1353.16 731.021C1356.02 772.778 1394.66 911.463 1394.66 969.611C1394.66 969.611 1348 929.503 1310 941.521C1369.5 981.503 1366.5 1017.02 1366.5 1017.02C1343.46 976.577 1334.73 979.807 1284 969.611C1316.5 991.111 1335.5 1014.02 1335.5 1041.02C1313 1017.52 1240.5 1030.52 1223.5 1041.02C1209.46 1049.69 1165.31 1047.18 1125.5 1056.04C1125.5 1056.04 1013.93 1058.25 941 1056.04C779.846 1051.15 705 1027.52 677 1017.02C669.499 1014.21 534.5 956.521 494 941.521C474.728 926.602 427.5 932.093 391 941.521C418 915.093 427.765 875.372 451.5 864.963C422.265 864.963 380.628 899.184 357.5 904.463L418.5 802.521C418.5 802.521 409 802.521 357.5 832.521C383.5 780.521 434.411 707.78 451.5 674.5C473.423 631.808 510.157 562.521 510.157 562.521C510.157 562.521 560.081 479.084 612.657 445.02C648.157 422.02 756.742 316.16 915.5 324.463C1050.5 331.524 1112.5 355.914 1199.5 419.463Z" fill="#9E7E6B"/>
<path d="M1199.5 419.463C1254.47 459.618 1278.18 502.339 1310 562.521C1337.07 613.714 1349.54 678.211 1353.16 731.021C1356.02 772.778 1394.66 911.463 1394.66 969.611C1394.66 969.611 1348 929.503 1310 941.521C1369.5 981.503 1366.5 1017.02 1366.5 1017.02C1343.46 976.577 1334.73 979.807 1284 969.611C1316.5 991.111 1335.5 1014.02 1335.5 1041.02C1313 1017.52 1240.5 1030.52 1223.5 1041.02C1209.46 1049.69 1165.31 1047.18 1125.5 1056.04C1125.5 1056.04 1013.93 1058.25 941 1056.04C779.846 1051.15 705 1027.52 677 1017.02C669.499 1014.21 534.5 956.521 494 941.521C474.728 926.602 427.5 932.093 391 941.521C418 915.093 427.765 875.372 451.5 864.963C422.265 864.963 380.628 899.184 357.5 904.463L418.5 802.521C418.5 802.521 409 802.521 357.5 832.521C383.5 780.521 434.411 707.78 451.5 674.5C473.423 631.808 510.157 562.521 510.157 562.521C510.157 562.521 560.081 479.084 612.657 445.02C648.157 422.02 756.742 316.16 915.5 324.463C1050.5 331.524 1112.5 355.914 1199.5 419.463Z" fill="url(#paint6_linear)"/>
<path d="M1199.5 419.463C1254.47 459.618 1278.18 502.339 1310 562.521C1337.07 613.714 1349.54 678.211 1353.16 731.021C1356.02 772.778 1394.66 911.463 1394.66 969.611C1394.66 969.611 1348 929.503 1310 941.521C1369.5 981.503 1366.5 1017.02 1366.5 1017.02C1343.46 976.577 1334.73 979.807 1284 969.611C1316.5 991.111 1335.5 1014.02 1335.5 1041.02C1313 1017.52 1240.5 1030.52 1223.5 1041.02C1209.46 1049.69 1165.31 1047.18 1125.5 1056.04C1125.5 1056.04 1013.93 1058.25 941 1056.04C779.846 1051.15 705 1027.52 677 1017.02C669.499 1014.21 534.5 956.521 494 941.521C474.728 926.602 427.5 932.093 391 941.521C418 915.093 427.765 875.372 451.5 864.963C422.265 864.963 380.628 899.184 357.5 904.463L418.5 802.521C418.5 802.521 409 802.521 357.5 832.521C383.5 780.521 434.411 707.78 451.5 674.5C473.423 631.808 510.157 562.521 510.157 562.521C510.157 562.521 560.081 479.084 612.657 445.02C648.157 422.02 756.742 316.16 915.5 324.463C1050.5 331.524 1112.5 355.914 1199.5 419.463Z" stroke="black" stroke-width="10"/>
<path d="M957.5 774.021L1021 845.521C1021 845.521 969.784 870.531 947 897.521C924.012 924.752 908 980.021 908 980.021C908 980.021 903.362 925.206 884.5 897.521C865.677 869.893 816.5 845.521 816.5 845.521L868.5 774.021L908 722.521L957.5 774.021Z" fill="#493A2E"/>
<path d="M957.5 774.021L1021 845.521C1021 845.521 969.784 870.531 947 897.521C924.012 924.752 908 980.021 908 980.021C908 980.021 903.362 925.206 884.5 897.521C865.677 869.893 816.5 845.521 816.5 845.521L868.5 774.021L908 722.521L957.5 774.021Z" fill="url(#paint7_radial)"/>
<path d="M957.5 774.021L1021 845.521C1021 845.521 969.784 870.531 947 897.521C924.012 924.752 908 980.021 908 980.021C908 980.021 903.362 925.206 884.5 897.521C865.677 869.893 816.5 845.521 816.5 845.521L868.5 774.021L908 722.521L957.5 774.021Z" stroke="black" stroke-width="10"/>
<path d="M845.452 614.555C839.913 585.54 798.912 561.085 798.912 561.085C798.912 561.085 751.013 539.165 720.749 546.503C697.279 552.193 683.445 560.155 666.452 579.835C647.985 601.22 639.26 619.113 636.618 649.276C633.284 687.357 643.464 713.561 666.452 740.938C693.596 773.266 723.009 783.067 761.322 775.658C797.346 768.692 822.319 752.076 838.292 713.856C850.817 683.887 853.439 656.39 845.452 614.555Z" fill="#C9BA48" stroke="black" stroke-width="10"/>
<path d="M1034.55 614.555C1040.09 585.54 1081.09 561.085 1081.09 561.085C1081.09 561.085 1128.99 539.165 1159.25 546.503C1182.72 552.193 1196.55 560.155 1213.55 579.835C1232.02 601.22 1240.74 619.113 1243.38 649.276C1246.72 687.357 1236.54 713.561 1213.55 740.938C1186.4 773.266 1156.99 783.067 1118.68 775.658C1082.65 768.692 1057.68 752.076 1041.71 713.856C1029.18 683.887 1026.56 656.39 1034.55 614.555Z" fill="#C9BA48" stroke="black" stroke-width="10"/>
<path d="M785.512 617.807C783.7 609.961 770.289 603.349 770.289 603.349C770.289 603.349 754.621 597.422 744.721 599.406C737.045 600.945 732.52 603.098 726.961 608.419C720.92 614.201 718.066 619.039 717.202 627.195C716.112 637.491 719.442 644.577 726.961 651.979C735.84 660.72 745.461 663.37 757.993 661.367C769.777 659.483 777.946 654.99 783.17 644.656C787.267 636.553 788.125 629.118 785.512 617.807Z" fill="black" stroke="black" stroke-width="10"/>
<path d="M1103.49 616.105C1105.3 608.135 1118.71 601.418 1118.71 601.418C1118.71 601.418 1134.38 595.397 1144.28 597.413C1151.96 598.976 1156.48 601.163 1162.04 606.568C1168.08 612.442 1170.93 617.357 1171.8 625.642C1172.89 636.102 1169.56 643.3 1162.04 650.82C1153.16 659.7 1143.54 662.392 1131.01 660.357C1119.22 658.443 1111.05 653.879 1105.83 643.381C1101.73 635.149 1100.88 627.596 1103.49 616.105Z" fill="black" stroke="black" stroke-width="10"/>
<path d="M804.5 612L875.5 690.5L843 602.5L767 516.5L694.5 473L705.5 501.5H611L636.5 557L804.5 612Z" fill="#9F7E6D" stroke="black" stroke-width="10"/>
<path d="M1076 612L1005 690.5L1037.5 602.5L1113.5 516.5L1186 473L1175 501.5H1269.5L1244 557L1076 612Z" fill="#9F7E6D" stroke="black" stroke-width="10"/>
<path d="M1074.16 402.5C1184.88 423.527 1306.66 539 1306.66 539L1336.66 501L1044.66 259H822.657L510.157 445.5L535.157 473.5L555.157 502.477C597.114 475.453 724.877 407.466 822.657 390.5C908.077 375.678 988.983 386.325 1074.16 402.5Z" fill="#BF0C0C"/>
<path d="M333.657 584C255.136 654.673 221.684 730.027 210.167 822.218C180.613 839.37 153.423 859.019 134.657 896.5C104.29 957.153 107.157 1068 107.157 1068H134.657C134.657 1068 132.69 982.94 155.522 932.034C167.871 904.499 185.668 886.836 205.996 872.577C205.195 890.095 204.959 908.213 205.157 927C205.831 990.815 233.157 1088 233.157 1088H255.657C255.657 1088 231.775 990.47 233.157 927C233.727 900.823 234.924 876.421 237.284 853.35C265.592 837.374 295.712 821.796 321.522 793.034C364.151 745.529 364.292 696.445 404.157 646.5C446.632 593.287 535.157 526 535.157 526C535.157 526 548.76 511.696 553.657 508.5L544.598 495L389.157 634.5C354.217 674.665 347.722 707.091 313.657 748C292.669 773.204 268.8 788.979 244.953 802.673C257.623 741.977 283.057 689.346 333.657 634.5L535.157 480.931L528.157 470.5C502.604 478.547 388.888 534.289 333.657 584Z" fill="#BF0C0C"/>
<path d="M1306.66 539C1306.66 539 1184.88 423.527 1074.16 402.5C988.983 386.325 908.077 375.678 822.657 390.5C724.877 407.466 597.114 475.453 555.157 502.477L535.157 473.5L510.157 445.5L822.657 259H1044.66L1336.66 501L1306.66 539ZM333.657 584C227.338 679.693 203.646 783.967 205.157 927C205.831 990.815 233.157 1088 233.157 1088H255.657C255.657 1088 231.775 990.47 233.157 927C235.787 806.246 251.756 723.273 333.657 634.5L535.157 480.931L528.157 470.5C502.604 478.547 388.888 534.289 333.657 584ZM535.157 526C535.157 526 446.632 593.287 404.157 646.5C364.292 696.445 364.151 745.529 321.522 793.034C265.704 855.236 189.723 855.779 155.522 932.034C132.69 982.94 134.657 1068 134.657 1068H107.157C107.157 1068 104.29 957.153 134.657 896.5C175.32 815.283 255.536 817.798 313.657 748C347.722 707.091 354.217 674.665 389.157 634.5L544.598 495L553.657 508.5C548.76 511.696 535.157 526 535.157 526Z" stroke="black" stroke-width="10"/>
<path d="M1420.66 367.5L1305.16 551C1276.66 483.5 1254.18 467.012 1209.16 425C1167.33 385.974 1123.16 369.5 1092.16 354.5C1092.16 354.5 973.92 318.412 897.657 323C811.365 328.191 763.983 338.705 689.157 382C606.068 430.076 544.52 511 544.52 511L424.52 327.5C424.52 327.5 576.418 315.214 669.657 240C755.418 170.818 843.157 17.5 843.157 17.5C843.157 17.5 863.73 127.851 919.157 147.5C947.868 157.678 968.322 157.319 997.157 147.5C1053.78 128.219 1078.16 17.5 1078.16 17.5C1078.16 17.5 1147.95 189.749 1224.16 259C1314.79 341.358 1420.66 367.5 1420.66 367.5Z" fill="#21201F"/>
<path d="M1420.66 367.5L1305.16 551C1276.66 483.5 1254.18 467.012 1209.16 425C1167.33 385.974 1123.16 369.5 1092.16 354.5C1092.16 354.5 973.92 318.412 897.657 323C811.365 328.191 763.983 338.705 689.157 382C606.068 430.076 544.52 511 544.52 511L424.52 327.5C424.52 327.5 576.418 315.214 669.657 240C755.418 170.818 843.157 17.5 843.157 17.5C843.157 17.5 863.73 127.851 919.157 147.5C947.868 157.678 968.322 157.319 997.157 147.5C1053.78 128.219 1078.16 17.5 1078.16 17.5C1078.16 17.5 1147.95 189.749 1224.16 259C1314.79 341.358 1420.66 367.5 1420.66 367.5Z" fill="url(#paint8_linear)"/>
<path d="M1420.66 367.5L1305.16 551C1276.66 483.5 1254.18 467.012 1209.16 425C1167.33 385.974 1123.16 369.5 1092.16 354.5C1092.16 354.5 973.92 318.412 897.657 323C811.365 328.191 763.983 338.705 689.157 382C606.068 430.076 544.52 511 544.52 511L424.52 327.5C424.52 327.5 576.418 315.214 669.657 240C755.418 170.818 843.157 17.5 843.157 17.5C843.157 17.5 863.73 127.851 919.157 147.5C947.868 157.678 968.322 157.319 997.157 147.5C1053.78 128.219 1078.16 17.5 1078.16 17.5C1078.16 17.5 1147.95 189.749 1224.16 259C1314.79 341.358 1420.66 367.5 1420.66 367.5Z" stroke="black" stroke-width="10"/>
<defs>
<linearGradient id="paint0_linear" x1="918.434" y1="2172.28" x2="876.496" y2="2125.11" gradientUnits="userSpaceOnUse">
<stop/>
<stop offset="0.796875" stop-opacity="0"/>
</linearGradient>
<linearGradient id="paint1_linear" x1="736.5" y1="1851.46" x2="736.5" y2="2195.46" gradientUnits="userSpaceOnUse">
<stop/>
<stop offset="0.791667" stop-opacity="0"/>
</linearGradient>
<linearGradient id="paint2_linear" x1="557.105" y1="2168.83" x2="604.275" y2="2133.36" gradientUnits="userSpaceOnUse">
<stop/>
<stop offset="0.739583" stop-opacity="0"/>
</linearGradient>
<linearGradient id="paint3_linear" x1="645" y1="984.463" x2="645" y2="1958.46" gradientUnits="userSpaceOnUse">
<stop stop-color="#815E58"/>
<stop offset="1" stop-color="white" stop-opacity="0"/>
</linearGradient>
<linearGradient id="paint4_linear" x1="582" y1="992.463" x2="582" y2="2091.46" gradientUnits="userSpaceOnUse">
<stop stop-color="#B08F7C"/>
<stop offset="1" stop-color="#503629"/>
</linearGradient>
<linearGradient id="paint5_linear" x1="41.2101" y1="2019.81" x2="460.464" y2="1225.59" gradientUnits="userSpaceOnUse">
<stop stop-color="#CB9576"/>
<stop offset="0.984375" stop-color="#9E7E6C"/>
</linearGradient>
<linearGradient id="paint6_linear" x1="909.794" y1="350.463" x2="910" y2="1179.52" gradientUnits="userSpaceOnUse">
<stop stop-color="#C69274"/>
<stop offset="1" stop-color="#9E7E6B"/>
</linearGradient>
<radialGradient id="paint7_radial" cx="0" cy="0" r="1" gradientUnits="userSpaceOnUse" gradientTransform="translate(919 851.02) scale(69 328.337)">
<stop stop-color="#AC9872"/>
<stop offset="1" stop-color="#362D28"/>
</radialGradient>
<linearGradient id="paint8_linear" x1="922.657" y1="145.5" x2="922.657" y2="551" gradientUnits="userSpaceOnUse">
<stop stop-color="#5B0000"/>
<stop offset="1" stop-color="#1E1010" stop-opacity="0"/>
</linearGradient>
</defs>
</svg>
