<svg width="3398" height="3936" viewBox="0 0 3398 3936" fill="none" xmlns="http://www.w3.org/2000/svg">
<path d="M198 3935.5C198 3935.5 72.5861 2705.84 198 1927C278.952 1424.28 343.715 1042.95 664.5 647.5C968.571 272.654 1305.83 133.419 1788.5 133.5C2270.99 133.581 2604.45 275.735 2912 647.5C3237.78 1041.3 3261.69 1422.34 3342.5 1927C3466.89 2703.82 3342.5 3935.5 3342.5 3935.5L2912 3194L2589.5 3935.5L2135 3194L1788.5 3935.5L1406 3194L1035 3935.5L664.5 3194L198 3935.5Z" fill="#D6D6D6"/>
<ellipse cx="2323" cy="1402" rx="494" ry="501" fill="#C4C4C4"/>
<ellipse cx="1216" cy="1402" rx="494" ry="501" fill="#C4C4C4"/>
<ellipse cx="1215.5" cy="1402.5" rx="246.5" ry="227.5" fill="#666666"/>
<ellipse cx="2323" cy="1402" rx="247" ry="227" fill="#666666"/>
<path d="M1230 717C1453.7 834.709 1762.5 1085 1762.5 1085C1762.5 1085 2084.33 835.313 2315 717C2700.43 519.311 3380 407 3380 407V0.5C3380 0.5 2683.77 51.9754 2315 271.5C2066.3 419.551 1762.5 765.5 1762.5 765.5C1762.5 765.5 1471.04 421.036 1230 271.5C812.032 12.2039 0 0.5 0 0.5V407C0 407 791.618 486.331 1230 717Z" fill="#C4C4C4"/>
<path d="M1758 1848C1580.6 1851.31 1361.94 1982.49 1419 2150.5C1517.5 2440.5 1758 2755 1758 2755C1758 2755 1998.5 2391 2110 2150.5C2186.24 1986.06 1939.22 1844.62 1758 1848Z" fill="#C4C4C4"/>
</svg>
