<svg width="1421" height="2205" viewBox="0 0 1421 2205" fill="none" xmlns="http://www.w3.org/2000/svg">
<path d="M887.657 1851.46L762.041 2128.64C762.041 2128.64 831.437 2136.03 853.398 2140.97C870.193 2144.74 865.862 2165.27 858.083 2178.45C852.896 2187.24 836.122 2195.46 836.122 2195.46L841.393 2164.15L787.808 2178.45H649.601C649.601 2178.45 581.641 2184.33 570.835 2178.45C560.029 2172.56 548.581 2157.98 548.581 2157.98L505.245 2185.85C505.245 2185.85 507.714 2175.13 512.723 2164.15L497.632 2178.45C497.632 2178.45 490.92 2143.43 512.723 2136.03C534.526 2128.64 564.393 2128.64 564.393 2128.64H686.203C742.423 2003.61 800.985 1851.46 800.985 1851.46H887.657Z" fill="#9E7A60"/>
<path d="M887.657 1851.46L762.041 2128.64C762.041 2128.64 831.437 2136.03 853.398 2140.97C870.193 2144.74 865.862 2165.27 858.083 2178.45C852.896 2187.24 836.122 2195.46 836.122 2195.46L841.393 2164.15L787.808 2178.45H649.601C649.601 2178.45 581.641 2184.33 570.835 2178.45C560.029 2172.56 548.581 2157.98 548.581 2157.98L505.245 2185.85C505.245 2185.85 507.714 2175.13 512.723 2164.15L497.632 2178.45C497.632 2178.45 490.92 2143.43 512.723 2136.03C534.526 2128.64 564.393 2128.64 564.393 2128.64H686.203C742.423 2003.61 800.985 1851.46 800.985 1851.46H887.657Z" fill="url(#paint0_linear)"/>
<path d="M887.657 1851.46L762.041 2128.64C762.041 2128.64 831.437 2136.03 853.398 2140.97C870.193 2144.74 865.862 2165.27 858.083 2178.45C852.896 2187.24 836.122 2195.46 836.122 2195.46L841.393 2164.15L787.808 2178.45H649.601C649.601 2178.45 581.641 2184.33 570.835 2178.45C560.029 2172.56 548.581 2157.98 548.581 2157.98L505.245 2185.85C505.245 2185.85 507.714 2175.13 512.723 2164.15L497.632 2178.45C497.632 2178.45 490.92 2143.43 512.723 2136.03C534.526 2128.64 564.393 2128.64 564.393 2128.64H686.203C742.423 2003.61 800.985 1851.46 800.985 1851.46H887.657Z" fill="url(#paint1_linear)"/>
<path d="M887.657 1851.46L762.041 2128.64C762.041 2128.64 831.437 2136.03 853.398 2140.97C870.193 2144.74 865.862 2165.27 858.083 2178.45C852.896 2187.24 836.122 2195.46 836.122 2195.46L841.393 2164.15L787.808 2178.45H649.601C649.601 2178.45 581.641 2184.33 570.835 2178.45C560.029 2172.56 548.581 2157.98 548.581 2157.98L505.245 2185.85C505.245 2185.85 507.714 2175.13 512.723 2164.15L497.632 2178.45C497.632 2178.45 490.92 2143.43 512.723 2136.03C534.526 2128.64 564.393 2128.64 564.393 2128.64H686.203C742.423 2003.61 800.985 1851.46 800.985 1851.46H887.657Z" fill="url(#paint2_linear)"/>
<path d="M853.398 2140.97C831.437 2136.03 762.041 2128.64 762.041 2128.64L887.657 1851.46H800.985C800.985 1851.46 742.423 2003.61 686.203 2128.64M853.398 2140.97C870.193 2144.74 865.862 2165.27 858.083 2178.45C852.896 2187.24 836.122 2195.46 836.122 2195.46L841.393 2164.15M853.398 2140.97L841.393 2164.15M841.393 2164.15L787.808 2178.45H649.601C649.601 2178.45 581.641 2184.33 570.835 2178.45C560.029 2172.56 548.581 2157.98 548.581 2157.98M548.581 2157.98L505.245 2185.85C505.245 2185.85 507.714 2175.13 512.723 2164.15M548.581 2157.98L534.526 2140.97M534.526 2140.97C577.277 2133.81 683.32 2135.05 686.203 2128.64M534.526 2140.97C524.827 2142.59 517.581 2153.49 512.723 2164.15M534.526 2140.97L512.723 2136.03M686.203 2128.64H564.393C564.393 2128.64 534.526 2128.64 512.723 2136.03M512.723 2136.03C490.92 2143.43 497.632 2178.45 497.632 2178.45L512.723 2164.15" stroke="black" stroke-width="10"/>
<path d="M185.136 1115.46L202.387 984.463H807.633L865.234 1080.5L983.359 1193.34L1100.61 1262.71L1181.6 1382.95L1233.35 1468.13L1257.04 1568.86L1289.49 1592.56L1360.25 1677.99L1390.66 1714.04L1381.59 1765.64L1350.6 1797.49L1315.51 1850.82L1304.99 1926.61L1211.71 1940.69L1137.74 1935.01L978.388 1899.21L949.149 1912.29L925.174 1926.61L913.186 1899.21L859.971 1946.86L882.485 1877.48L834.533 1912.29V1886.12L765.821 1926.61L714.361 1958.46V1899.21L673.426 1958.46L651.205 1886.12L640.971 1926.61L522.554 1818.23V1855.75L414.662 1714.04L315.542 1559.23L279.578 1481.22L258.819 1468.13V1398.75L224.609 1392.83L240.106 1332.09L264.082 1239.51L224.609 1282.96L250.339 1212.1L202.387 1239.51L250.339 1170.13L185.136 1199.01L250.339 1125.44L185.136 1155.81L240.106 1080.5L185.136 1115.46Z" fill="#BC9D80"/>
<path d="M185.136 1115.46L202.387 984.463H807.633L865.234 1080.5L983.359 1193.34L1100.61 1262.71L1181.6 1382.95L1233.35 1468.13L1257.04 1568.86L1289.49 1592.56L1360.25 1677.99L1390.66 1714.04L1381.59 1765.64L1350.6 1797.49L1315.51 1850.82L1304.99 1926.61L1211.71 1940.69L1137.74 1935.01L978.388 1899.21L949.149 1912.29L925.174 1926.61L913.186 1899.21L859.971 1946.86L882.485 1877.48L834.533 1912.29V1886.12L765.821 1926.61L714.361 1958.46V1899.21L673.426 1958.46L651.205 1886.12L640.971 1926.61L522.554 1818.23V1855.75L414.662 1714.04L315.542 1559.23L279.578 1481.22L258.819 1468.13V1398.75L224.609 1392.83L240.106 1332.09L264.082 1239.51L224.609 1282.96L250.339 1212.1L202.387 1239.51L250.339 1170.13L185.136 1199.01L250.339 1125.44L185.136 1155.81L240.106 1080.5L185.136 1115.46Z" fill="url(#paint3_linear)"/>
<path d="M185.136 1115.46L202.387 984.463H807.633L865.234 1080.5L983.359 1193.34L1100.61 1262.71L1181.6 1382.95L1233.35 1468.13L1257.04 1568.86L1289.49 1592.56L1360.25 1677.99L1390.66 1714.04L1381.59 1765.64L1350.6 1797.49L1315.51 1850.82L1304.99 1926.61L1211.71 1940.69L1137.74 1935.01L978.388 1899.21L949.149 1912.29L925.174 1926.61L913.186 1899.21L859.971 1946.86L882.485 1877.48L834.533 1912.29V1886.12L765.821 1926.61L714.361 1958.46V1899.21L673.426 1958.46L651.205 1886.12L640.971 1926.61L522.554 1818.23V1855.75L414.662 1714.04L315.542 1559.23L279.578 1481.22L258.819 1468.13V1398.75L224.609 1392.83L240.106 1332.09L264.082 1239.51L224.609 1282.96L250.339 1212.1L202.387 1239.51L250.339 1170.13L185.136 1199.01L250.339 1125.44L185.136 1155.81L240.106 1080.5L185.136 1115.46Z" stroke="black" stroke-width="10"/>
<path d="M284.281 1274.17C247.118 1169.46 378.454 1036.41 378.454 1036.41L966.657 865.963C966.657 865.963 1010.76 1136.41 1122.18 1241.83C1208.62 1323.61 1264.03 1521.07 1264.03 1521.07L1361.42 1653.91C1361.42 1653.91 1385.67 1691.49 1398.56 1716.62C1405.69 1730.52 1414.45 1737.54 1415.52 1752.67C1416.79 1770.5 1408.94 1780.55 1398.56 1796.12C1387.72 1812.38 1378.04 1819.87 1361.42 1832.17C1342.5 1846.16 1299.75 1896.3 1311.41 1915.12C1324.86 1936.85 1408.5 2002.53 1408.5 2002.53C1408.5 2002.53 1415.52 2043.51 1415.52 2074.13C1415.52 2104.74 1351.77 2085.48 1351.77 2085.48C1351.77 2085.48 1151.01 1950.82 1102.59 1944.51C1012.31 1932.73 955.945 1873.15 878.563 1832.17C762.204 1770.54 672.67 1716.62 634.943 1686C597.215 1655.39 541.648 1607.49 511.231 1573.42C423.316 1474.93 330.198 1403.55 284.281 1274.17Z" fill="#392C24"/>
<path d="M284.281 1274.17C247.118 1169.46 378.454 1036.41 378.454 1036.41L966.657 865.963C966.657 865.963 1010.76 1136.41 1122.18 1241.83C1208.62 1323.61 1264.03 1521.07 1264.03 1521.07L1361.42 1653.91C1361.42 1653.91 1385.67 1691.49 1398.56 1716.62C1405.69 1730.52 1414.45 1737.54 1415.52 1752.67C1416.79 1770.5 1408.94 1780.55 1398.56 1796.12C1387.72 1812.38 1378.04 1819.87 1361.42 1832.17C1342.5 1846.16 1299.75 1896.3 1311.41 1915.12C1324.86 1936.85 1408.5 2002.53 1408.5 2002.53C1408.5 2002.53 1415.52 2043.51 1415.52 2074.13C1415.52 2104.74 1351.77 2085.48 1351.77 2085.48C1351.77 2085.48 1151.01 1950.82 1102.59 1944.51C1012.31 1932.73 955.945 1873.15 878.563 1832.17C762.204 1770.54 672.67 1716.62 634.943 1686C597.215 1655.39 541.648 1607.49 511.231 1573.42C423.316 1474.93 330.198 1403.55 284.281 1274.17Z" fill="url(#paint4_linear)"/>
<path d="M284.281 1274.17C247.118 1169.46 378.454 1036.41 378.454 1036.41L966.657 865.963C966.657 865.963 1010.76 1136.41 1122.18 1241.83C1208.62 1323.61 1264.03 1521.07 1264.03 1521.07L1361.42 1653.91C1361.42 1653.91 1385.67 1691.49 1398.56 1716.62C1405.69 1730.52 1414.45 1737.54 1415.52 1752.67C1416.79 1770.5 1408.94 1780.55 1398.56 1796.12C1387.72 1812.38 1378.04 1819.87 1361.42 1832.17C1342.5 1846.16 1299.75 1896.3 1311.41 1915.12C1324.86 1936.85 1408.5 2002.53 1408.5 2002.53C1408.5 2002.53 1415.52 2043.51 1415.52 2074.13C1415.52 2104.74 1351.77 2085.48 1351.77 2085.48C1351.77 2085.48 1151.01 1950.82 1102.59 1944.51C1012.31 1932.73 955.945 1873.15 878.563 1832.17C762.204 1770.54 672.67 1716.62 634.943 1686C597.215 1655.39 541.648 1607.49 511.231 1573.42C423.316 1474.93 330.198 1403.55 284.281 1274.17Z" fill="url(#paint5_linear)"/>
<path d="M284.281 1274.17C247.118 1169.46 378.454 1036.41 378.454 1036.41L966.657 865.963C966.657 865.963 1010.76 1136.41 1122.18 1241.83C1208.62 1323.61 1264.03 1521.07 1264.03 1521.07L1361.42 1653.91C1361.42 1653.91 1385.67 1691.49 1398.56 1716.62C1405.69 1730.52 1414.45 1737.54 1415.52 1752.67C1416.79 1770.5 1408.94 1780.55 1398.56 1796.12C1387.72 1812.38 1378.04 1819.87 1361.42 1832.17C1342.5 1846.16 1299.75 1896.3 1311.41 1915.12C1324.86 1936.85 1408.5 2002.53 1408.5 2002.53C1408.5 2002.53 1415.52 2043.51 1415.52 2074.13C1415.52 2104.74 1351.77 2085.48 1351.77 2085.48C1351.77 2085.48 1151.01 1950.82 1102.59 1944.51C1012.31 1932.73 955.945 1873.15 878.563 1832.17C762.204 1770.54 672.67 1716.62 634.943 1686C597.215 1655.39 541.648 1607.49 511.231 1573.42C423.316 1474.93 330.198 1403.55 284.281 1274.17Z" stroke="black" stroke-width="10"/>
<path d="M229.157 419.463C174.185 459.618 150.477 502.339 118.657 562.521C91.5903 613.714 79.1219 678.211 75.4999 731.021C72.6361 772.778 34 911.463 34 969.611C34 969.611 80.6572 929.503 118.657 941.521C59.1572 981.503 62.1572 1017.02 62.1572 1017.02C85.1923 976.577 93.9298 979.807 144.657 969.611C112.157 991.111 93.1573 1014.02 93.1573 1041.02C115.657 1017.52 188.157 1030.52 205.157 1041.02C219.195 1049.69 263.347 1047.18 303.157 1056.04C303.157 1056.04 414.732 1058.25 487.657 1056.04C648.812 1051.15 723.657 1027.52 751.657 1017.02C759.158 1014.21 894.157 956.521 934.657 941.521C953.929 926.602 1001.16 932.093 1037.66 941.521C1010.66 915.093 1000.89 875.372 977.157 864.963C1006.39 864.963 1048.03 899.184 1071.16 904.463L1010.16 802.521C1010.16 802.521 1019.66 802.521 1071.16 832.521C1045.16 780.521 994.247 707.78 977.157 674.5C955.235 631.808 918.5 562.521 918.5 562.521C918.5 562.521 868.576 479.084 816 445.02C780.5 422.02 671.915 316.16 513.157 324.463C378.158 331.524 316.157 355.914 229.157 419.463Z" fill="#9E7E6B"/>
<path d="M229.157 419.463C174.185 459.618 150.477 502.339 118.657 562.521C91.5903 613.714 79.1219 678.211 75.4999 731.021C72.6361 772.778 34 911.463 34 969.611C34 969.611 80.6572 929.503 118.657 941.521C59.1572 981.503 62.1572 1017.02 62.1572 1017.02C85.1923 976.577 93.9298 979.807 144.657 969.611C112.157 991.111 93.1573 1014.02 93.1573 1041.02C115.657 1017.52 188.157 1030.52 205.157 1041.02C219.195 1049.69 263.347 1047.18 303.157 1056.04C303.157 1056.04 414.732 1058.25 487.657 1056.04C648.812 1051.15 723.657 1027.52 751.657 1017.02C759.158 1014.21 894.157 956.521 934.657 941.521C953.929 926.602 1001.16 932.093 1037.66 941.521C1010.66 915.093 1000.89 875.372 977.157 864.963C1006.39 864.963 1048.03 899.184 1071.16 904.463L1010.16 802.521C1010.16 802.521 1019.66 802.521 1071.16 832.521C1045.16 780.521 994.247 707.78 977.157 674.5C955.235 631.808 918.5 562.521 918.5 562.521C918.5 562.521 868.576 479.084 816 445.02C780.5 422.02 671.915 316.16 513.157 324.463C378.158 331.524 316.157 355.914 229.157 419.463Z" fill="url(#paint6_linear)"/>
<path d="M229.157 419.463C174.185 459.618 150.477 502.339 118.657 562.521C91.5903 613.714 79.1219 678.211 75.4999 731.021C72.6361 772.778 34 911.463 34 969.611C34 969.611 80.6572 929.503 118.657 941.521C59.1572 981.503 62.1572 1017.02 62.1572 1017.02C85.1923 976.577 93.9298 979.807 144.657 969.611C112.157 991.111 93.1573 1014.02 93.1573 1041.02C115.657 1017.52 188.157 1030.52 205.157 1041.02C219.195 1049.69 263.347 1047.18 303.157 1056.04C303.157 1056.04 414.732 1058.25 487.657 1056.04C648.812 1051.15 723.657 1027.52 751.657 1017.02C759.158 1014.21 894.157 956.521 934.657 941.521C953.929 926.602 1001.16 932.093 1037.66 941.521C1010.66 915.093 1000.89 875.372 977.157 864.963C1006.39 864.963 1048.03 899.184 1071.16 904.463L1010.16 802.521C1010.16 802.521 1019.66 802.521 1071.16 832.521C1045.16 780.521 994.247 707.78 977.157 674.5C955.235 631.808 918.5 562.521 918.5 562.521C918.5 562.521 868.576 479.084 816 445.02C780.5 422.02 671.915 316.16 513.157 324.463C378.158 331.524 316.157 355.914 229.157 419.463Z" stroke="black" stroke-width="10"/>
<path d="M471.157 774.021L407.657 845.521C407.657 845.521 458.873 870.531 481.657 897.521C504.645 924.752 520.657 980.021 520.657 980.021C520.657 980.021 525.295 925.206 544.157 897.521C562.98 869.893 612.157 845.521 612.157 845.521L560.157 774.021L520.657 722.521L471.157 774.021Z" fill="#493A2E"/>
<path d="M471.157 774.021L407.657 845.521C407.657 845.521 458.873 870.531 481.657 897.521C504.645 924.752 520.657 980.021 520.657 980.021C520.657 980.021 525.295 925.206 544.157 897.521C562.98 869.893 612.157 845.521 612.157 845.521L560.157 774.021L520.657 722.521L471.157 774.021Z" fill="url(#paint7_radial)"/>
<path d="M471.157 774.021L407.657 845.521C407.657 845.521 458.873 870.531 481.657 897.521C504.645 924.752 520.657 980.021 520.657 980.021C520.657 980.021 525.295 925.206 544.157 897.521C562.98 869.893 612.157 845.521 612.157 845.521L560.157 774.021L520.657 722.521L471.157 774.021Z" stroke="black" stroke-width="10"/>
<path d="M609.205 634.018C614.744 605.003 655.745 580.548 655.745 580.548C655.745 580.548 703.644 558.627 733.909 565.966C757.378 571.656 771.212 579.618 788.205 599.297C806.672 620.683 815.398 638.575 818.039 668.739C821.373 706.82 811.193 733.024 788.205 760.401C761.061 792.728 731.648 802.53 693.335 795.121C657.311 788.155 632.338 771.538 616.365 733.319C603.841 703.35 601.218 675.853 609.205 634.018Z" fill="#C9BA48" stroke="black" stroke-width="10"/>
<path d="M394.609 634.46C389.07 605.445 348.069 580.991 348.069 580.991C348.069 580.991 300.17 559.07 269.906 566.408C246.437 572.099 232.603 580.06 215.609 599.74C197.142 621.126 188.417 639.018 185.776 669.181C182.441 707.262 192.622 733.466 215.609 760.843C242.753 793.171 272.167 802.973 310.479 795.564C346.504 788.597 371.476 771.981 387.449 733.761C399.974 703.793 402.596 676.295 394.609 634.46Z" fill="#C9BA48" stroke="black" stroke-width="10"/>
<path d="M664.145 629.27C665.957 621.424 679.368 614.812 679.368 614.812C679.368 614.812 695.036 608.885 704.936 610.869C712.613 612.408 717.138 614.561 722.696 619.882C728.737 625.664 731.591 630.502 732.455 638.658C733.546 648.954 730.216 656.039 722.696 663.442C713.817 672.183 704.196 674.833 691.664 672.83C679.88 670.946 671.712 666.453 666.487 656.119C662.39 648.016 661.532 640.581 664.145 629.27Z" fill="black" stroke="black" stroke-width="10"/>
<path d="M339.67 630.011C337.858 622.041 324.446 615.324 324.446 615.324C324.446 615.324 308.778 609.302 298.879 611.318C291.202 612.881 286.677 615.068 281.118 620.474C275.077 626.348 272.223 631.262 271.36 639.548C270.269 650.008 273.599 657.205 281.118 664.725C289.997 673.605 299.618 676.297 312.15 674.262C323.934 672.349 332.103 667.784 337.328 657.286C341.424 649.055 342.282 641.502 339.67 630.011Z" fill="black" stroke="black" stroke-width="10"/>
<path d="M625.657 640.021L554.657 718.521L587.157 630.521L663.157 544.521L735.657 501.021L724.657 529.521H819.157L793.657 585.021L625.657 640.021Z" fill="#9F7E6D" stroke="black" stroke-width="10"/>
<path d="M378.157 640.463L449.157 718.963L416.657 630.963L340.657 544.963L268.157 501.463L279.157 529.963H184.657L210.157 585.463L378.157 640.463Z" fill="#9F7E6D" stroke="black" stroke-width="10"/>
<path d="M354.5 402.5C243.777 423.527 122 539 122 539L92 501L384 259H606L918.5 445.5L893.5 473.5L873.5 502.477C831.543 475.453 703.781 407.466 606 390.5C520.58 375.678 439.674 386.325 354.5 402.5Z" fill="#BF0C0C"/>
<path d="M1095 584C1173.52 654.673 1206.97 730.027 1218.49 822.218C1248.04 839.37 1275.23 859.019 1294 896.5C1324.37 957.153 1321.5 1068 1321.5 1068H1294C1294 1068 1295.97 982.94 1273.14 932.034C1260.79 904.499 1242.99 886.836 1222.66 872.577C1223.46 890.095 1223.7 908.213 1223.5 927C1222.83 990.815 1195.5 1088 1195.5 1088H1173C1173 1088 1196.88 990.47 1195.5 927C1194.93 900.823 1193.73 876.421 1191.37 853.35C1163.07 837.374 1132.94 821.796 1107.14 793.034C1064.51 745.529 1064.37 696.445 1024.5 646.5C982.026 593.287 893.5 526 893.5 526C893.5 526 879.897 511.696 875 508.5L884.059 495L1039.5 634.5C1074.44 674.665 1080.93 707.091 1115 748C1135.99 773.204 1159.86 788.979 1183.7 802.673C1171.03 741.977 1145.6 689.346 1095 634.5L893.5 480.931L900.5 470.5C926.053 478.547 1039.77 534.289 1095 584Z" fill="#BF0C0C"/>
<path d="M122 539C122 539 243.777 423.527 354.5 402.5C439.674 386.325 520.58 375.678 606 390.5C703.781 407.466 831.543 475.453 873.5 502.477L893.5 473.5L918.5 445.5L606 259H384L92 501L122 539ZM1095 584C1201.32 679.693 1225.01 783.967 1223.5 927C1222.83 990.815 1195.5 1088 1195.5 1088H1173C1173 1088 1196.88 990.47 1195.5 927C1192.87 806.246 1176.9 723.273 1095 634.5L893.5 480.931L900.5 470.5C926.053 478.547 1039.77 534.289 1095 584ZM893.5 526C893.5 526 982.026 593.287 1024.5 646.5C1064.37 696.445 1064.51 745.529 1107.14 793.034C1162.95 855.236 1238.93 855.779 1273.14 932.034C1295.97 982.94 1294 1068 1294 1068H1321.5C1321.5 1068 1324.37 957.153 1294 896.5C1253.34 815.283 1173.12 817.798 1115 748C1080.93 707.091 1074.44 674.665 1039.5 634.5L884.059 495L875 508.5C879.897 511.696 893.5 526 893.5 526Z" stroke="black" stroke-width="10"/>
<path d="M8 367.5L123.5 551C152 483.5 174.474 467.012 219.5 425C261.327 385.974 305.5 369.5 336.5 354.5C336.5 354.5 454.738 318.412 531 323C617.292 328.191 664.674 338.705 739.5 382C822.589 430.076 884.137 511 884.137 511L1004.14 327.5C1004.14 327.5 852.239 315.214 759 240C673.239 170.818 585.5 17.5 585.5 17.5C585.5 17.5 564.928 127.851 509.5 147.5C480.79 157.678 460.335 157.319 431.5 147.5C374.876 128.219 350.5 17.5 350.5 17.5C350.5 17.5 280.71 189.749 204.5 259C113.865 341.358 8 367.5 8 367.5Z" fill="#21201F"/>
<path d="M8 367.5L123.5 551C152 483.5 174.474 467.012 219.5 425C261.327 385.974 305.5 369.5 336.5 354.5C336.5 354.5 454.738 318.412 531 323C617.292 328.191 664.674 338.705 739.5 382C822.589 430.076 884.137 511 884.137 511L1004.14 327.5C1004.14 327.5 852.239 315.214 759 240C673.239 170.818 585.5 17.5 585.5 17.5C585.5 17.5 564.928 127.851 509.5 147.5C480.79 157.678 460.335 157.319 431.5 147.5C374.876 128.219 350.5 17.5 350.5 17.5C350.5 17.5 280.71 189.749 204.5 259C113.865 341.358 8 367.5 8 367.5Z" fill="url(#paint8_linear)"/>
<path d="M8 367.5L123.5 551C152 483.5 174.474 467.012 219.5 425C261.327 385.974 305.5 369.5 336.5 354.5C336.5 354.5 454.738 318.412 531 323C617.292 328.191 664.674 338.705 739.5 382C822.589 430.076 884.137 511 884.137 511L1004.14 327.5C1004.14 327.5 852.239 315.214 759 240C673.239 170.818 585.5 17.5 585.5 17.5C585.5 17.5 564.928 127.851 509.5 147.5C480.79 157.678 460.335 157.319 431.5 147.5C374.876 128.219 350.5 17.5 350.5 17.5C350.5 17.5 280.71 189.749 204.5 259C113.865 341.358 8 367.5 8 367.5Z" stroke="black" stroke-width="10"/>
<defs>
<linearGradient id="paint0_linear" x1="510.223" y1="2172.28" x2="552.161" y2="2125.11" gradientUnits="userSpaceOnUse">
<stop/>
<stop offset="0.796875" stop-opacity="0"/>
</linearGradient>
<linearGradient id="paint1_linear" x1="692.157" y1="1851.46" x2="692.157" y2="2195.46" gradientUnits="userSpaceOnUse">
<stop/>
<stop offset="0.791667" stop-opacity="0"/>
</linearGradient>
<linearGradient id="paint2_linear" x1="871.553" y1="2168.83" x2="824.383" y2="2133.36" gradientUnits="userSpaceOnUse">
<stop/>
<stop offset="0.739583" stop-opacity="0"/>
</linearGradient>
<linearGradient id="paint3_linear" x1="783.657" y1="984.463" x2="783.657" y2="1958.46" gradientUnits="userSpaceOnUse">
<stop stop-color="#815E58"/>
<stop offset="1" stop-color="white" stop-opacity="0"/>
</linearGradient>
<linearGradient id="paint4_linear" x1="846.657" y1="992.463" x2="846.657" y2="2091.46" gradientUnits="userSpaceOnUse">
<stop stop-color="#B08F7C"/>
<stop offset="1" stop-color="#503629"/>
</linearGradient>
<linearGradient id="paint5_linear" x1="1387.45" y1="2019.81" x2="968.193" y2="1225.59" gradientUnits="userSpaceOnUse">
<stop stop-color="#CB9576"/>
<stop offset="0.984375" stop-color="#9E7E6C"/>
</linearGradient>
<linearGradient id="paint6_linear" x1="518.863" y1="350.463" x2="518.657" y2="1179.52" gradientUnits="userSpaceOnUse">
<stop stop-color="#C69274"/>
<stop offset="1" stop-color="#9E7E6B"/>
</linearGradient>
<radialGradient id="paint7_radial" cx="0" cy="0" r="1" gradientUnits="userSpaceOnUse" gradientTransform="translate(509.657 851.02) rotate(180) scale(69 328.337)">
<stop stop-color="#AC9872"/>
<stop offset="1" stop-color="#362D28"/>
</radialGradient>
<linearGradient id="paint8_linear" x1="506" y1="145.5" x2="506" y2="551" gradientUnits="userSpaceOnUse">
<stop stop-color="#5B0000"/>
<stop offset="1" stop-color="#1E1010" stop-opacity="0"/>
</linearGradient>
</defs>
</svg>
